<?xml version="1.0" encoding="UTF-8" standalone="no"?>
<svg
   xmlns:dc="http://purl.org/dc/elements/1.1/"
   xmlns:cc="http://creativecommons.org/ns#"
   xmlns:rdf="http://www.w3.org/1999/02/22-rdf-syntax-ns#"
   xmlns:svg="http://www.w3.org/2000/svg"
   xmlns="http://www.w3.org/2000/svg"
   xmlns:sodipodi="http://sodipodi.sourceforge.net/DTD/sodipodi-0.dtd"
   xmlns:inkscape="http://www.inkscape.org/namespaces/inkscape"
   xml:space="preserve"
   width="24"
   height="24"
   viewBox="0 0 24 24"
   version="1.1"
   id="svg284"
   sodipodi:docname="anniversary.svg"
   inkscape:version="1.0.1 (3bc2e813f5, 2020-09-07)"><metadata
     id="metadata290"><rdf:RDF><cc:Work
         rdf:about=""><dc:format>image/svg+xml</dc:format><dc:type
           rdf:resource="http://purl.org/dc/dcmitype/StillImage" /><dc:title></dc:title></cc:Work></rdf:RDF></metadata><defs
     id="defs288" /><sodipodi:namedview
     pagecolor="#ffffff"
     bordercolor="#666666"
     borderopacity="1"
     objecttolerance="10"
     gridtolerance="10"
     guidetolerance="10"
     inkscape:pageopacity="0"
     inkscape:pageshadow="2"
     inkscape:window-width="3072"
     inkscape:window-height="1796"
     id="namedview286"
     showgrid="false"
     fit-margin-top="0"
     fit-margin-left="0"
     fit-margin-right="0"
     fit-margin-bottom="0"
     inkscape:zoom="33.45499"
     inkscape:cx="9.3857554"
     inkscape:cy="16.816793"
     inkscape:window-x="-12"
     inkscape:window-y="-12"
     inkscape:window-maximized="1"
     inkscape:current-layer="svg284"
     inkscape:document-rotation="0" /><g
     transform="matrix(0.20350206,0,0,0.20000435,-1.0256504,-0.8000174)"
     id="g260"><path
       d="m 7.45,123.27 c 2.27,2.46 11.62,-1.83 19,-5.27 5.53,-2.57 27.66,-11.65 38.66,-16.36 2.97,-1.27 7.29,-2.93 10.4,-7.02 2.76,-3.64 10.08,-19.1 -4.66,-34.76 -14.96,-15.9 -30.37,-11.51 -36.13,-7.43 -3.39,2.4 -6.15,7.81 -7.39,10.56 -5.24,11.62 -12.71,32.91 -15.75,41.28 -2.23,6.17 -6.38,16.56 -4.13,19"
       style="fill:#ffc107"
       id="path239" /><path
       d="m 25.85,66.49 c 0.14,1.74 0.49,4.57 1.69,10.02 0.82,3.74 2.16,7.66 3.25,10.25 3.27,7.79 7.86,10.93 12.51,13.45 7.9,4.28 13.27,5.08 13.27,5.08 l -6.44,2.63 c 0,0 -3.9,-0.81 -9.22,-3.43 -5.07,-2.5 -10.35,-6.73 -14.21,-15.01 -1.67,-3.59 -2.64,-7.07 -3.2,-9.83 -0.69,-3.42 -0.8,-5.36 -0.8,-5.36 z m -7.91,20.28 c 0,0 0.8,6.49 6.16,14.68 6.28,9.58 15.05,11.15 15.05,11.15 l -5.83,2.4 c 0,0 -6.51,-1.99 -12.7,-10.44 -3.86,-5.27 -4.94,-11.57 -4.94,-11.57 z m -5.55,15.38 c 0,0 1.46,5.6 4.66,9.78 3.81,4.99 8.66,6.44 8.66,6.44 l -4.47,1.98 c 0,0 -3.39,-0.71 -7.1,-5.41 -2.82,-3.57 -3.62,-7.67 -3.62,-7.67 z"
       style="fill:#ff8f00"
       id="path241" /><g
       style="opacity:0.44"
       id="g245"><path
         d="m 9.96,116.37 c -0.2,-0.45 -0.2,-0.96 0.01,-1.4 l 25.47,-52.82 4.19,15.75 -26.8,38.71 c -0.72,1.08 -2.34,0.94 -2.87,-0.24"
         style="fill:#fffde7"
         id="path243" /></g><linearGradient
       id="a"
       x1="74.384003"
       x2="44.617001"
       y1="61.839001"
       y2="79.698997"
       gradientUnits="userSpaceOnUse"><stop
         offset=".024"
         style="stop-color:#8f4700"
         id="stop247" /><stop
         offset="1"
         style="stop-color:#703e2d"
         id="stop249" /></linearGradient><path
       d="M 41.65,83.19 C 53.55,97.11 67.1,95.37 71.61,91.85 76.13,88.32 79.7,76.19 67.85,62.5 55.43,48.16 41.37,52.25 38.12,55.35 c -3.25,3.1 -7.39,15.07 3.53,27.84"
       style="fill:url(#a)"
       id="path252" /><path
       d="m 82.52,88.92 c -4.34,-3.64 -6.65,-2.99 -9.75,-1.7 -4,1.66 -10.29,2.89 -18.83,0 l 2.57,-6.19 c 5.07,1.71 8.74,0.88 11.91,-0.99 4.08,-2.4 9.66,-5.69 18.34,1.6 3.62,3.04 7.33,5.06 10.05,4.14 1.98,-0.66 3.03,-3.61 3.56,-5.96 0.05,-0.21 0.13,-0.81 0.19,-1.34 0.48,-3.67 1.28,-11.59 7.18,-15.64 6.31,-4.33 12.94,-4.33 12.94,-4.33 l 1.2,11.92 c -3.05,-0.45 -5.17,0.17 -6.96,1.16 -6.74,3.75 -0.87,18.15 -11.36,22.99 -10.09,4.69 -18.34,-3.4 -21.04,-5.66"
       style="fill:#03a9f4"
       id="path254" /><path
       d="M 45.4,73.72 41.06,69.83 C 49.03,60.93 46.93,54.39 45.4,49.63 45.09,48.67 44.8,47.76 44.61,46.89 43.93,43.81 43.79,41.13 44,38.79 40.94,34.98 39.59,30.99 39.5,30.72 37.64,25.09 39.04,19.6 42.25,14.45 48.74,4 60.49,4 60.49,4 l 3.92,10.49 c -2.98,-0.12 -12.75,0.03 -15.75,4.76 -3.79,5.96 -1.3,9.64 -1.12,10.06 0.73,-0.95 1.47,-1.71 2.13,-2.3 4.79,-4.25 8.95,-4.86 11.6,-4.62 2.98,0.27 5.68,1.77 7.61,4.23 2.11,2.7 2.98,6.21 2.31,9.4 -0.65,3.11 -2.72,5.74 -5.83,7.41 -5.43,2.92 -9.95,2.52 -12.98,1.51 0.02,0.07 0.03,0.15 0.05,0.22 0.11,0.5 0.33,1.2 0.59,2.01 1.77,5.48 5.06,14.18 -7.62,26.55 m 7.35,-37.53 c 0.58,0.42 1.19,0.77 1.82,1.02 2.1,0.84 4.39,0.56 6.99,-0.84 1.53,-0.82 1.71,-1.7 1.77,-1.99 0.18,-0.87 -0.12,-1.98 -0.77,-2.81 -0.57,-0.73 -1.23,-1.11 -2.02,-1.19 -1.5,-0.13 -3.53,0.82 -5.56,2.63 -0.97,0.87 -1.71,1.94 -2.23,3.18"
       style="fill:#f44336"
       id="path256" /><path
       d="m 62.77,75.35 -6.21,-0.17 c 0,0 2.95,-16.66 12.5,-19.46 1.79,-0.52 3.75,-1.05 5.72,-1.34 1.17,-0.18 3.02,-0.45 3.93,-0.79 0.21,-1.57 -0.45,-3.57 -1.19,-5.84 -0.58,-1.76 -1.18,-3.57 -1.5,-5.55 -0.62,-3.86 0.41,-7.27 2.9,-9.62 3.04,-2.85 7.95,-3.76 13.49,-2.5 3.16,0.72 5.49,2.27 7.54,3.63 2.93,1.95 4.64,2.94 8.22,0.53 4.33,-2.92 -1.33,-14.35 -4.34,-20.95 l 11.23,-4.68 c 1.51,3.3 8.8,20.28 3.99,29.97 -1.62,3.26 -4.41,5.42 -8.07,6.23 -7.96,1.78 -12.62,-1.32 -16.02,-3.58 -1.61,-1.07 -3.02,-1.91 -4.55,-2.35 -10.63,-3.03 4.21,12.61 -2.74,19.64 -4.17,4.21 -14.36,5.32 -15.02,5.48 -6.56,1.58 -9.88,11.35 -9.88,11.35"
       style="fill:#f48fb1"
       id="path258" /></g><path
     d="m 7.926405,6.9581509 c -0.03866,0.44001 -0.05698,0.702016 0.05902,1.274028 0.55963,0.404009 1.778607,0.404009 1.778607,0.404009 -0.05291,-0.162004 -0.09971,-0.302006 -0.120066,-0.402008 -0.0041,-0.014 -0.0061,-0.03 -0.01018,-0.044 C 8.394458,7.5821659 7.926403,6.9581529 7.926403,6.9581529"
     style="fill:#c92b27;stroke-width:0.201745"
     id="path262" /><path
     d="m 4.334594,6.4261399 1.6504017,1.074024 -0.5942261,1.42803 -2.1042113,-1.014021 z"
     style="fill:#ffc107;stroke-width:0.201745"
     id="path264" /><path
     d="M 2.2893982,6.1201329 C 1.2149073,5.9781299 0.1200662,5.0821105 0,4.9801082 L 1.0561757,3.7620818 c 0.3194982,0.2660058 0.9971601,0.7120155 1.4509697,0.7720168 z"
     style="fill:#fb8c00;stroke-width:0.201745"
     id="path266" /><path
     d="M 4.1860374,3.4540751 2.6394218,2.9560642 C 2.8164685,2.4240527 2.863274,1.8500402 2.771698,1.2960281 L 4.3793644,1.0420226 c 0.1322756,0.8040175 0.06512,1.6380356 -0.193327,2.4120525"
     style="fill:#03a9f4;stroke-width:0.201745"
     id="path268" /><path
     d="m 13.846169,2.26454 1.590458,-0.3419904 0.459354,2.0632601 -1.590458,0.3419904 z"
     style="fill:#fb8c00;stroke-width:0.20175"
     id="path270" /><path
     d="M 17.790149,2.7540598 16.670888,1.5920346 c 0.586086,-0.546012 0.720398,-1.2600275 0.720398,-1.2680276 l 1.607666,0.2580056 c -0.02035,0.1260028 -0.225887,1.2580273 -1.208803,2.1720472"
     style="fill:#ffc107;stroke-width:0.201745"
     id="path272" /><path
     d="m 18.41281,8.9159209 1.421889,-0.436662 0.485633,1.5271971 -1.421889,0.436662 z"
     style="fill:#fb8c00;stroke-width:0.20175"
     id="path274" /><path
     d="m 18.825976,21.806474 -1.617842,-0.188003 c 0.06919,-0.566014 -0.360198,-1.260028 -0.47823,-1.414031 l 1.302414,-0.960021 c 0.09768,0.125997 0.946284,1.280028 0.793658,2.562055"
     style="fill:#f44336;stroke-width:0.201745"
     id="path276" /><path
     d="m 23.469893,19.778431 c -0.608472,-0.09 -1.231188,-0.125997 -1.845765,-0.104007 l -0.05495,-1.600035 c 0.714293,-0.024 1.436727,0.016 2.142877,0.122007 z"
     style="fill:#fb8c00;stroke-width:0.201745"
     id="path278" /><path
     d="M 21.281953,21.980329 22.425776,20.841802 24,22.369212 22.856177,23.50774 Z"
     style="fill:#f48fb1;stroke-width:0.201745"
     id="path280" /><path
     d="m 17.9207,11.865285 1.176196,1.321704 -1.3449,1.15603 -1.176196,-1.321703 z"
     style="fill:#f44336;stroke-width:0.201735"
     id="path282" /></svg>
